<svg width="900" height="600" viewBox="0 0 900 600"
     xmlns="http://www.w3.org/2000/svg"
     font-family="Arial, Helvetica, sans-serif">

  <!-- Boxes -->
  <rect x="350" y="20"  width="200" height="50" fill="#f5f5f5" stroke="#000"/>
  <rect x="300" y="100" width="300" height="60" fill="#e8f0ff" stroke="#000"/>
  <rect x="330" y="190" width="240" height="60" fill="#fff3e0" stroke="#000"/>
  <rect x="350" y="280" width="200" height="60" fill="#e0ffe0" stroke="#000"/>

  <!-- Heads -->
  <rect x="120" y="390" width="120" height="50" fill="#fafafa" stroke="#000"/>
  <rect x="280" y="390" width="120" height="50" fill="#fafafa" stroke="#000"/>
  <rect x="440" y="390" width="120" height="50" fill="#fafafa" stroke="#000"/>
  <rect x="600" y="390" width="120" height="50" fill="#fafafa" stroke="#000"/>

  <!-- Memory -->
  <rect x="330" y="480" width="240" height="60" fill="#f0f0f0" stroke="#000"/>

  <!-- Text -->
  <text x="450" y="50"  text-anchor="middle" font-size="14">RGB Image (128×128)</text>
  <text x="450" y="135" text-anchor="middle" font-size="14">
    Frozen DINOv2 Vision Transformer
  </text>
  <text x="450" y="225" text-anchor="middle" font-size="14">Adapter MLP (Trainable)</text>
  <text x="450" y="315" text-anchor="middle" font-size="14">128-D Latent Vector</text>

  <text x="180" y="420" text-anchor="middle" font-size="12">Color Head</text>
  <text x="340" y="420" text-anchor="middle" font-size="12">Shape Head</text>
  <text x="500" y="420" text-anchor="middle" font-size="12">Size Head</text>
  <text x="660" y="420" text-anchor="middle" font-size="12">Logic Head</text>

  <text x="450" y="515" text-anchor="middle" font-size="14">
    Explicit Concept Memory
  </text>

  <!-- Arrows -->
  <line x1="450" y1="70"  x2="450" y2="100" stroke="#000"/>
  <line x1="450" y1="160" x2="450" y2="190" stroke="#000"/>
  <line x1="450" y1="250" x2="450" y2="280" stroke="#000"/>

  <line x1="450" y1="340" x2="180" y2="390" stroke="#000"/>
  <line x1="450" y1="340" x2="340" y2="390" stroke="#000"/>
  <line x1="450" y1="340" x2="500" y2="390" stroke="#000"/>
  <line x1="450" y1="340" x2="660" y2="390" stroke="#000"/>

  <line x1="450" y1="440" x2="450" y2="480" stroke="#000"/>

</svg>
